<svg width="162" height="186" viewBox="0 0 162 186" fill="none" xmlns="http://www.w3.org/2000/svg">
<path d="M10.9393 185.061C11.5251 185.646 12.4749 185.646 13.0607 185.061L22.6066 175.515C23.1924 174.929 23.1924 173.979 22.6066 173.393C22.0208 172.808 21.0711 172.808 20.4853 173.393L12 181.879L3.51472 173.393C2.92893 172.808 1.97919 172.808 1.3934 173.393C0.807611 173.979 0.807611 174.929 1.3934 175.515L10.9393 185.061ZM13.5 2.45386C13.5 1.62543 12.8284 0.953857 12 0.953857C11.1716 0.953857 10.5 1.62543 10.5 2.45386H13.5ZM13.5 184V182H10.5V184H13.5ZM36 159.5H136V156.5H36V159.5ZM161.5 134V76.0001H158.5V134H161.5ZM136 50.5001H36V53.5001H136V50.5001ZM13.5 28.0001V2.45386H10.5V28.0001H13.5ZM36 50.5001C23.5736 50.5001 13.5 40.4265 13.5 28.0001H10.5C10.5 42.0833 21.9167 53.5001 36 53.5001V50.5001ZM161.5 76.0001C161.5 61.9168 150.083 50.5001 136 50.5001V53.5001C148.426 53.5001 158.5 63.5736 158.5 76.0001H161.5ZM136 159.5C150.083 159.5 161.5 148.083 161.5 134H158.5C158.5 146.426 148.426 156.5 136 156.5V159.5ZM13.5 182C13.5 169.574 23.5736 159.5 36 159.5V156.5C21.9167 156.5 10.5 167.917 10.5 182H13.5Z" fill="#666666"/>
</svg>
