<svg width="437" height="412" viewBox="0 0 437 412" fill="none" xmlns="http://www.w3.org/2000/svg">
<path d="M10.9393 411.061C11.5251 411.646 12.4749 411.646 13.0607 411.061L22.6066 401.515C23.1924 400.929 23.1924 399.979 22.6066 399.393C22.0208 398.808 21.0711 398.808 20.4853 399.393L12 407.879L3.51472 399.393C2.92893 398.808 1.97919 398.808 1.3934 399.393C0.807611 399.979 0.807611 400.929 1.3934 401.515L10.9393 411.061ZM13.5 1.89648C13.5 1.06806 12.8284 0.396484 12 0.396484C11.1716 0.396484 10.5 1.06806 10.5 1.89648H13.5ZM13.5 410V338H10.5V410H13.5ZM36 315.5H411.001V312.5H36V315.5ZM436.501 290V57.9999H433.501V290H436.501ZM411.001 32.4999H36V35.4999H411.001V32.4999ZM13.5 9.99994V1.89648H10.5V9.99994H13.5ZM36 32.4999C23.5736 32.4999 13.5 22.4263 13.5 9.99994H10.5C10.5 24.0832 21.9167 35.4999 36 35.4999V32.4999ZM436.501 57.9999C436.501 43.9167 425.085 32.4999 411.001 32.4999V35.4999C423.428 35.4999 433.501 45.5735 433.501 57.9999H436.501ZM411.001 315.5C425.085 315.5 436.501 304.083 436.501 290H433.501C433.501 302.426 423.428 312.5 411.001 312.5V315.5ZM13.5 338C13.5 325.574 23.5736 315.5 36 315.5V312.5C21.9167 312.5 10.5 323.917 10.5 338H13.5Z" fill="#666666"/>
</svg>
