<svg width="492" height="411" viewBox="0 0 492 411" fill="none" xmlns="http://www.w3.org/2000/svg">
<path d="M10.9393 410.061C11.5251 410.646 12.4749 410.646 13.0607 410.061L22.6066 400.515C23.1924 399.929 23.1924 398.979 22.6066 398.393C22.0208 397.808 21.0711 397.808 20.4853 398.393L12 406.879L3.51472 398.393C2.92893 397.808 1.97919 397.808 1.3934 398.393C0.807611 398.979 0.807611 399.929 1.3934 400.515L10.9393 410.061ZM358.876 1.79761C358.876 0.96918 358.205 0.297607 357.376 0.297607C356.548 0.297607 355.876 0.96918 355.876 1.79761H358.876ZM13.5 409V376H10.5V409H13.5ZM36 353.5H466.002V350.5H36V353.5ZM491.502 328V138H488.502V328H491.502ZM466.002 112.5H381.376V115.5H466.002V112.5ZM358.876 89.9999V1.79761H355.876V89.9999H358.876ZM381.376 112.5C368.95 112.5 358.876 102.426 358.876 89.9999H355.876C355.876 104.083 367.293 115.5 381.376 115.5V112.5ZM491.502 138C491.502 123.917 480.085 112.5 466.002 112.5V115.5C478.428 115.5 488.502 125.574 488.502 138H491.502ZM466.002 353.5C480.085 353.5 491.502 342.083 491.502 328H488.502C488.502 340.426 478.428 350.5 466.002 350.5V353.5ZM13.5 376C13.5 363.574 23.5736 353.5 36 353.5V350.5C21.9167 350.5 10.5 361.917 10.5 376H13.5Z" fill="#666666"/>
</svg>
