<svg width="334" height="441" viewBox="0 0 334 441" fill="none" xmlns="http://www.w3.org/2000/svg">
<path d="M320.939 97.0607C321.525 97.6464 322.475 97.6464 323.061 97.0607L332.607 87.5147C333.192 86.9289 333.192 85.9792 332.607 85.3934C332.021 84.8076 331.071 84.8076 330.485 85.3934L322 93.8787L313.515 85.3934C312.929 84.8076 311.979 84.8076 311.393 85.3934C310.808 85.9792 310.808 86.9289 311.393 87.5147L320.939 97.0607ZM2 437.781C1.17157 437.781 0.5 438.453 0.5 439.281C0.5 440.11 1.17157 440.781 2 440.781V437.781ZM323.5 96V26H320.5V96H323.5ZM298 0.5H70.999V3.5H298V0.5ZM45.499 26V415.281H48.499V26H45.499ZM22.999 437.781H2V440.781H22.999V437.781ZM45.499 415.281C45.499 427.708 35.4254 437.781 22.999 437.781V440.781C37.0823 440.781 48.499 429.365 48.499 415.281H45.499ZM70.999 0.5C56.9158 0.5 45.499 11.9167 45.499 26H48.499C48.499 13.5736 58.5726 3.5 70.999 3.5V0.5ZM323.5 26C323.5 11.9167 312.083 0.5 298 0.5V3.5C310.426 3.5 320.5 13.5736 320.5 26H323.5Z" fill="#666666"/>
</svg>
