<svg width="803" height="410" viewBox="0 0 803 410" fill="none" xmlns="http://www.w3.org/2000/svg">
<path d="M10.5643 409.338C11.1501 409.924 12.0999 409.924 12.6857 409.338L22.2316 399.792C22.8174 399.206 22.8174 398.257 22.2316 397.671C21.6458 397.085 20.6961 397.085 20.1103 397.671L11.625 406.156L3.13972 397.671C2.55393 397.085 1.60419 397.085 1.0184 397.671C0.432611 398.257 0.432611 399.206 1.0184 399.792L10.5643 409.338ZM633.501 2C633.501 1.17157 632.829 0.5 632.001 0.5C631.172 0.5 630.501 1.17157 630.501 2H633.501ZM13.125 408.277V378H10.125V408.277H13.125ZM35.625 355.5H776.999V352.5H35.625V355.5ZM802.499 330V110H799.499V330H802.499ZM776.999 84.5H656.001V87.5H776.999V84.5ZM633.501 62V2H630.501V62H633.501ZM656.001 84.5C643.574 84.5 633.501 74.4264 633.501 62H630.501C630.501 76.0833 641.917 87.5 656.001 87.5V84.5ZM802.499 110C802.499 95.9167 791.082 84.5 776.999 84.5V87.5C789.426 87.5 799.499 97.5736 799.499 110H802.499ZM776.999 355.5C791.082 355.5 802.499 344.083 802.499 330H799.499C799.499 342.426 789.426 352.5 776.999 352.5V355.5ZM13.125 378C13.125 365.574 23.1986 355.5 35.625 355.5V352.5C21.5417 352.5 10.125 363.917 10.125 378H13.125Z" fill="#666666"/>
</svg>
