<svg width="359" height="88" viewBox="0 0 359 88" fill="none" xmlns="http://www.w3.org/2000/svg">
<path d="M348.061 1.01453C347.475 0.428745 346.525 0.428752 345.939 1.01454L336.393 10.5606C335.808 11.1463 335.808 12.0961 336.393 12.6819C336.979 13.2677 337.929 13.2676 338.515 12.6819L347 4.19652L355.485 12.6817C356.071 13.2675 357.021 13.2675 357.607 12.6817C358.192 12.0959 358.192 11.1462 357.607 10.5604L348.061 1.01453ZM3.125 6.0752C3.125 5.24677 2.45343 4.5752 1.625 4.5752C0.796573 4.5752 0.125 5.24677 0.125 6.0752H3.125ZM347 62L345.5 62L347 62ZM345.5 2.07521L345.5 62L348.5 62L348.5 2.07518L345.5 2.07521ZM323 84.5002H25.625V87.5002H323V84.5002ZM3.125 62.0002V6.0752H0.125V62.0002H3.125ZM25.625 84.5002C13.1986 84.5002 3.125 74.4266 3.125 62.0002H0.125C0.125 76.0834 11.5417 87.5002 25.625 87.5002V84.5002ZM345.5 62C345.5 74.4265 335.427 84.5002 323 84.5002V87.5002C337.084 87.5002 348.501 76.0834 348.5 62L345.5 62Z" fill="#666666"/>
</svg>
