<svg width="50" height="50" viewBox="0 0 50 50" fill="none" xmlns="http://www.w3.org/2000/svg">
<rect x="0.357143" y="0.357143" width="49.2857" height="49.2857" rx="9.64286" fill="white" stroke="#CCCCCC" stroke-width="0.714286"/>
<path d="M38.916 19.228C38.8479 17.7377 38.6112 16.72 38.2651 15.8296C37.9137 14.8954 37.3626 14.0493 36.6503 13.3499C35.9511 12.6376 35.1048 12.0863 34.1706 11.7347C33.28 11.3888 32.2625 11.1523 30.7722 11.0846C29.2792 11.0162 28.8022 11 25.0001 11C21.198 11 20.721 11.0162 19.228 11.0842C17.7377 11.1523 16.7202 11.389 15.8296 11.7351C14.8954 12.0865 14.0493 12.6376 13.3499 13.3499C12.6376 14.0491 12.0863 14.8952 11.7347 15.8294C11.3888 16.72 11.1523 17.7377 11.0846 19.2278C11.0162 20.721 11 21.1978 11 24.9999C11 28.8022 11.0162 29.2792 11.0846 30.7722C11.1525 32.2623 11.3892 33.28 11.7353 34.1706C12.0867 35.1046 12.6379 35.9509 13.3501 36.6501C14.0493 37.3624 14.8957 37.9135 15.8298 38.2649C16.7202 38.6112 17.7379 38.8477 19.2282 38.9158C20.7214 38.984 21.1982 39 25.0003 39C28.8024 39 29.2794 38.984 30.7725 38.9158C32.2627 38.8477 33.2802 38.6112 34.1708 38.2649C36.0513 37.5377 37.538 36.0511 38.2651 34.1706C38.6114 33.28 38.8479 32.2623 38.916 30.7722C38.984 29.279 39.0002 28.8022 39.0002 25.0001C39.0002 21.1978 38.984 20.721 38.916 19.228ZM36.3959 30.6575C36.3337 32.0226 36.1056 32.7639 35.914 33.2571C35.4429 34.4782 34.478 35.4431 33.2569 35.9142C32.7637 36.1058 32.0224 36.334 30.6573 36.3961C29.1814 36.4636 28.7385 36.4777 25.0001 36.4777C21.2615 36.4777 20.8188 36.4636 19.3427 36.3961C17.9778 36.334 17.2366 36.1058 16.7431 35.9142C16.1351 35.6897 15.585 35.3319 15.1334 34.8668C14.6684 34.4152 14.3105 33.8653 14.086 33.2571C13.8944 32.7639 13.6662 32.0226 13.6041 30.6575C13.5368 29.1814 13.5225 28.7385 13.5225 25.0003C13.5225 21.2619 13.5368 20.8193 13.6041 19.3429C13.6665 17.9778 13.8944 17.2366 14.086 16.7433C14.3105 16.1351 14.6686 15.585 15.1334 15.1334C15.585 14.6684 16.1351 14.3105 16.7433 14.0862C17.2366 13.8944 17.9778 13.6665 19.3429 13.6041C20.819 13.5368 21.2619 13.5225 25.0001 13.5225H24.9999C28.7381 13.5225 29.181 13.5368 30.6573 13.6043C32.0224 13.6665 32.7634 13.8946 33.2569 14.0862C33.8649 14.3108 34.415 14.6686 34.8666 15.1334C35.3316 15.585 35.6895 16.1351 35.9138 16.7433C36.1056 17.2366 36.3337 17.9778 36.3959 19.3429C36.4632 20.819 36.4775 21.2619 36.4775 25.0001C36.4775 28.7385 36.4634 29.1812 36.3959 30.6575Z" fill="url(#paint0_linear_1335_209)"/>
<path d="M24.9997 17.8105C21.0292 17.8105 17.8105 21.0294 17.8105 24.9999C17.8105 28.9703 21.0292 32.189 24.9997 32.189C28.9703 32.189 32.189 28.9703 32.189 24.9999C32.189 21.0294 28.9703 17.8105 24.9997 17.8105ZM24.9997 29.6665C22.4225 29.6663 20.333 27.577 20.3332 24.9997C20.3332 22.4225 22.4225 20.333 24.9999 20.333C27.5773 20.3332 29.6665 22.4225 29.6665 24.9997C29.6665 27.577 27.577 29.6665 24.9997 29.6665Z" fill="url(#paint1_linear_1335_209)"/>
<path d="M34.1531 17.5268C34.1531 18.4546 33.4009 19.2068 32.4731 19.2068C31.5451 19.2068 30.793 18.4546 30.793 17.5268C30.793 16.5989 31.5451 15.8467 32.4731 15.8467C33.4009 15.8467 34.1531 16.5989 34.1531 17.5268Z" fill="url(#paint2_linear_1335_209)"/>
<defs>
<linearGradient id="paint0_linear_1335_209" x1="13.3497" y1="36.6503" x2="36.6505" y2="13.3495" gradientUnits="userSpaceOnUse">
<stop stop-color="#FFD600"/>
<stop offset="0.5" stop-color="#FF0100"/>
<stop offset="1" stop-color="#D800B9"/>
</linearGradient>
<linearGradient id="paint1_linear_1335_209" x1="19.9162" y1="30.0833" x2="30.0833" y2="19.9162" gradientUnits="userSpaceOnUse">
<stop stop-color="#FF6400"/>
<stop offset="0.5" stop-color="#FF0100"/>
<stop offset="1" stop-color="#FD0056"/>
</linearGradient>
<linearGradient id="paint2_linear_1335_209" x1="31.2851" y1="18.7147" x2="33.661" y2="16.3388" gradientUnits="userSpaceOnUse">
<stop stop-color="#F30072"/>
<stop offset="1" stop-color="#E50097"/>
</linearGradient>
</defs>
</svg>
