<svg width="118" height="177" viewBox="0 0 118 177" fill="none" xmlns="http://www.w3.org/2000/svg">
<path d="M10.4393 176.061C11.0251 176.646 11.9749 176.646 12.5607 176.061L22.1066 166.515C22.6924 165.929 22.6924 164.979 22.1066 164.393C21.5208 163.808 20.5711 163.808 19.9853 164.393L11.5 172.879L3.01472 164.393C2.42893 163.808 1.47919 163.808 0.893398 164.393C0.307611 164.979 0.307611 165.929 0.893398 166.515L10.4393 176.061ZM13 2.33447C13 1.50605 12.3284 0.834473 11.5 0.834473C10.6716 0.834473 10 1.50605 10 2.33447H13ZM13 175V156H10V175H13ZM35.5 133.5H91.9999V130.5H35.5V133.5ZM117.5 108V65H114.5V108H117.5ZM91.9999 39.5H35.5V42.5H91.9999V39.5ZM13 17V2.33447H10V17H13ZM35.5 39.5C23.0736 39.5 13 29.4264 13 17H10C10 31.0833 21.4167 42.5 35.5 42.5V39.5ZM117.5 65C117.5 50.9167 106.083 39.5 91.9999 39.5V42.5C104.426 42.5 114.5 52.5736 114.5 65H117.5ZM91.9999 133.5C106.083 133.5 117.5 122.083 117.5 108H114.5C114.5 120.426 104.426 130.5 91.9999 130.5V133.5ZM13 156C13 143.574 23.0736 133.5 35.5 133.5V130.5C21.4167 130.5 10 141.917 10 156H13Z" fill="#666666"/>
</svg>
