<svg width="149" height="497" viewBox="0 0 149 497" fill="none" xmlns="http://www.w3.org/2000/svg">
<path d="M101.662 484.005C101.076 484.59 101.076 485.54 101.662 486.126L111.208 495.672C111.794 496.258 112.743 496.258 113.329 495.672C113.915 495.086 113.915 494.136 113.329 493.551L104.844 485.065L113.329 476.58C113.915 475.994 113.915 475.044 113.329 474.459C112.743 473.873 111.794 473.873 111.208 474.459L101.662 484.005ZM46.2775 3.85498C47.1059 3.85498 47.7775 3.18341 47.7775 2.35498C47.7775 1.52655 47.1059 0.85498 46.2775 0.85498V3.85498ZM102.723 486.565H122.722V483.565H102.723V486.565ZM148.223 461.065V271.021H145.223V461.065H148.223ZM122.722 245.521H26.2773V248.521H122.722V245.521ZM3.77734 223.021V26.355H0.777344V223.021H3.77734ZM26.2773 3.85498H46.2775V0.85498H26.2773V3.85498ZM3.77734 26.355C3.77734 13.9286 13.8509 3.85498 26.2773 3.85498V0.85498C12.1941 0.85498 0.777344 12.2717 0.777344 26.355H3.77734ZM26.2773 245.521C13.8509 245.521 3.77734 235.447 3.77734 223.021H0.777344C0.777344 237.104 12.1941 248.521 26.2773 248.521V245.521ZM148.223 271.021C148.223 256.938 136.806 245.521 122.722 245.521V248.521C135.149 248.521 145.223 258.594 145.223 271.021H148.223ZM122.722 486.565C136.806 486.565 148.223 475.149 148.223 461.065H145.223C145.223 473.492 135.149 483.565 122.722 483.565V486.565Z" fill="#666666"/>
</svg>
