<svg width="296" height="407" viewBox="0 0 296 407" fill="none" xmlns="http://www.w3.org/2000/svg">
<path d="M145.439 406.061C146.025 406.647 146.975 406.647 147.561 406.061L157.107 396.515C157.692 395.929 157.692 394.979 157.107 394.393C156.521 393.808 155.571 393.808 154.985 394.393L146.5 402.879L138.015 394.393C137.429 393.808 136.479 393.808 135.893 394.393C135.308 394.979 135.308 395.929 135.893 396.515L145.439 406.061ZM41.2775 3.87622C42.1059 3.87622 42.7775 3.20465 42.7775 2.37622C42.7775 1.54779 42.1059 0.876221 41.2775 0.876221V3.87622ZM148 405V403H145V405H148ZM170.5 380.5H270V377.5H170.5V380.5ZM295.5 355V297H292.5V355H295.5ZM270 271.5H26V274.5H270V271.5ZM3.5 249V26.3762H0.5V249H3.5ZM26 3.87622H41.2775V0.876221H26V3.87622ZM3.5 26.3762C3.5 13.9498 13.5736 3.87622 26 3.87622V0.876221C11.9167 0.876221 0.5 12.2929 0.5 26.3762H3.5ZM26 271.5C13.5736 271.5 3.5 261.426 3.5 249H0.5C0.5 263.083 11.9167 274.5 26 274.5V271.5ZM295.5 297C295.5 282.917 284.083 271.5 270 271.5V274.5C282.426 274.5 292.5 284.574 292.5 297H295.5ZM270 380.5C284.083 380.5 295.5 369.083 295.5 355H292.5C292.5 367.426 282.426 377.5 270 377.5V380.5ZM148 403C148 390.574 158.074 380.5 170.5 380.5V377.5C156.417 377.5 145 388.917 145 403H148Z" fill="#666666"/>
</svg>
