<svg width="276" height="439" viewBox="0 0 276 439" fill="none" xmlns="http://www.w3.org/2000/svg">
<path d="M60.0607 428.984C60.6464 428.399 60.6464 427.449 60.0607 426.863L50.5147 417.317C49.9289 416.731 48.9792 416.731 48.3934 417.317C47.8076 417.903 47.8076 418.853 48.3934 419.438L56.8787 427.924L48.3934 436.409C47.8076 436.995 47.8076 437.944 48.3934 438.53C48.9792 439.116 49.9289 439.116 50.5147 438.53L60.0607 428.984ZM216 0.434082C215.172 0.434082 214.5 1.10565 214.5 1.93408C214.5 2.76251 215.172 3.43408 216 3.43408V0.434082ZM59 426.424H26V429.424H59V426.424ZM3.5 403.924V238H0.5V403.924H3.5ZM26 215.5H250V212.5H26V215.5ZM275.5 190V25.9341H272.5V190H275.5ZM250 0.434082H216V3.43408H250V0.434082ZM275.5 25.9341C275.5 11.8508 264.083 0.434082 250 0.434082V3.43408C262.426 3.43408 272.5 13.5077 272.5 25.9341H275.5ZM250 215.5C264.083 215.5 275.5 204.083 275.5 190H272.5C272.5 202.426 262.426 212.5 250 212.5V215.5ZM3.5 238C3.5 225.574 13.5736 215.5 26 215.5V212.5C11.9167 212.5 0.5 223.917 0.5 238H3.5ZM26 426.424C13.5736 426.424 3.5 416.35 3.5 403.924H0.5C0.5 418.007 11.9167 429.424 26 429.424V426.424Z" fill="#666666"/>
</svg>
